<svg xmlns="http://www.w3.org/2000/svg" viewBox="0 0 402.3 257.71"><defs><style>.cls-1{fill:#4d4d4d;}.cls-2{fill:#ece9e9;}.cls-3{fill:#29abe2;}</style></defs><title>outlearn-2</title><g id="Layer_2" data-name="Layer 2"><g id="Layer_1-2" data-name="Layer 1"><polygon class="cls-2" points="273.47 123.4 273.47 41.13 202.23 0 130.98 41.13 130.98 123.4 202.23 164.53 273.47 123.4"/><polyline class="cls-2" points="235.87 124.21 250.69 111.8 250.69 51.81 200.72 25.99 186.44 34.23 231.47 65.54 235.87 124.21"/><path class="cls-1" d="M255.08,48.43,205.66,23c-6.77-3.57-20.12,3.32-24,9.39a9.39,9.39,0,0,0-1.59,5.77l.61,57.53c0,1.22,1.58,2.87,2.9,3.68,2.74,1.68,44.26,27.6,45.44,28.34a4,4,0,0,0,2.12.58,4.12,4.12,0,0,0,1.83-.42,3.49,3.49,0,0,0,2-3.1V64.29a3.47,3.47,0,0,0-1.93-3L188.19,36.16c.51-1,2.51-3.08,6.18-5,3.87-2,6.77-1.26,7.43-1,0,0,43.11,23.07,44.43,23.76s1.34.79,1.34,2v57.34c0,2.86,2.9,4,5,4s4.4-2.09,4.4-4V51.47A3.48,3.48,0,0,0,255.08,48.43Z"/><polyline class="cls-2" points="203.19 141.65 218.02 129.25 218.02 69.25 168.04 43.44 153.76 51.67 198.79 82.98 203.19 141.65"/><path class="cls-3" d="M222.4,65.87,173,40.39c-6.77-3.57-20.12,3.32-24,9.39a9.39,9.39,0,0,0-1.59,5.77l.61,57.53c0,1.22,1.58,2.87,2.9,3.68,2.74,1.68,44.26,27.6,45.44,28.34a4,4,0,0,0,2.12.58,4.12,4.12,0,0,0,1.83-.42,3.49,3.49,0,0,0,2-3.1V81.73a3.47,3.47,0,0,0-1.93-3L155.51,53.61c.51-1,2.51-3.08,6.18-5,3.87-2,6.77-1.26,7.43-1,0,0,43.11,23.07,44.43,23.76s1.34.79,1.34,2v57.34c0,2.86,2.9,4,5,4s4.4-2.09,4.4-4V68.92A3.48,3.48,0,0,0,222.4,65.87Z"/></g></g></svg>